<?xml version="1.0" encoding="UTF-8" standalone="no"?>
<svg
	xmlns="http://www.w3.org/2000/svg"
	xmlns:xlink="http://www.w3.org/1999/xlink"
	width="250"
	height="250"
	viewBox="0 0 250 250">
	<circle
		style="opacity:1;fill:#ffffff"
		cx="125"
		cy="125"
		r="90" />
	<path
		style="fill:#000000"
		d="m 81.95,192.1 c -4.58,-1.3 -8.42,-3.3 -11.89,-7 -10.06,-9.9 -10.06,-26.2 0,-36 14.63,-14.9 39.64,-7 43.44,13.7 3.3,17.9 -13.63,33.6 -31.55,29.3 z M 92.74,182 c 9.46,-2.7 13.96,-15 8.46,-23.4 -6.27,-9.3 -19.8,-9.3 -26.02,0 -5.49,8.2 -1.46,19.7 7.68,23 2.93,1.1 6.77,1.1 9.88,0.4 z M 144,192.1 c -4.8,-1.3 -8.4,-3.3 -12,-7 -9.9,-9.9 -9.9,-26.2 0.2,-36 14.6,-14.9 39.4,-7 43.3,13.7 3.3,17.9 -13.7,33.6 -31.5,29.3 z M 154.6,182 c 9.5,-2.7 14.1,-15 8.4,-23.4 -9.3,-13.9 -30.5,-5.5 -28.1,11.3 1.4,8.8 10.8,14.5 19.7,12.1 z m -41.5,-33.1 c -1.6,-2.2 -2.7,-4.2 -2.4,-4.4 0.2,-0.2 9,-6.6 19.4,-14.1 10.2,-7.7 19.8,-14.8 21.1,-16.1 2.7,-2.9 4.2,-5.9 4.2,-9.3 0,-4.4 1.6,-11.2 3.6,-14.9 2.4,-4.3 7.3,-8.6 11.4,-9.8 4,-1.1 20.8,-1.3 23.2,-0.2 3.6,1.6 3.6,7.1 0,8.8 -0.9,0.5 -5.3,0.7 -10.8,0.7 -8.4,0 -9.3,0.2 -11.3,1.5 -3.3,2.2 -5.2,6.4 -5.9,13.7 -0.7,7.3 -2.4,11.7 -6.2,15.9 -1.7,1.8 -38,29.1 -42.4,31.7 -0.6,0.3 -2,-1.1 -3.9,-3.5 z m -50.17,-5.1 c -3.66,-1.8 -6.95,-5.5 -8.97,-9.6 -2.32,-12 -3.25,-20.6 -1.28,-35.6 3.11,-20.3 18.66,-36.07 38.78,-39.18 5.49,-0.92 17.64,-0.92 19.44,0 5.9,12.28 3.1,22.28 3.1,40.38 h 18.2 18 v 3.5 c 0,4.4 -1.4,6.6 -6.4,10.3 -3.8,3.1 -36,26.5 -37.3,27.3 -0.5,0.3 -2.1,-0.2 -3.7,-1.1 -10.06,-5.9 -24.33,-4.5 -34.2,3.4 -1.47,1.1 -2.75,2 -2.93,2 -0.18,-0.2 -1.46,-0.7 -2.74,-1.4 z m 107.47,-0.2 c -5.5,-4.6 -10.8,-6.8 -17.4,-7.4 l -4,-0.5 6.7,-4.9 c 10.3,-7.7 14.3,-13.6 14.8,-22.2 0.2,-2.5 0.6,-5.5 0.8,-6.6 l 0.2,-2 h 5.1 c 2.7,0 5.8,0.2 6.7,0.8 5,9.3 5.7,23 1,33.4 -1.9,4.3 -5.3,7.8 -9,9.6 -3.1,1.6 -2.7,1.6 -4.9,-0.2 z"/>
</svg>