<?xml version="1.0" encoding="UTF-8" standalone="no"?>
<svg
	xmlns="http://www.w3.org/2000/svg"
	xmlns:xlink="http://www.w3.org/1999/xlink"
	width="250"
	height="250"
	viewBox="0 0 250 250">
	<circle
		style="opacity:1;fill:#ffffff"
		cx="125"
		cy="125"
		r="90"/>
	<path
		style="fill:#000000;"
		d="M 91.09,170.4 C 67.06,167.9 46.76,146.2 46.38,121.9 45.3,99.8 60.34,78.2 81.52,71.7 103.5,64.35 129.7,74.2 141,94.5 c 8.7,15.1 9.2,34.7 0.6,49.9 -0.8,8.9 -14.3,2.6 -11.2,-3.5 10.6,-15.7 7,-39 -7.7,-50.9 -14,-12.5 -37.04,-12.6 -51.04,-0.2 -9.89,8.2 -15.3,21.3 -13.8,34.1 1.27,19.8 20.07,36.3 39.77,35.6 5.77,1.3 12.97,-5.5 16.97,1.4 2.3,2.4 7.8,5.1 1.9,6 -8.1,3.2 -16.84,4.4 -25.41,3.5 z m 56.41,0 C 124.1,168 104.2,147.3 103,123.8 c -0.9,-11.9 2.3,-24.1 9.7,-33.6 5.8,2 11,7 5.3,12.4 -7.5,15.2 -4.1,35.3 8.9,46.5 12.9,12.4 34.5,13.8 49,3.4 11.7,-7.9 18.6,-22.3 16.9,-36.4 -1.3,-19.8 -20.1,-36.3 -39.8,-35.6 -5.3,-1.5 -11.9,5.2 -15.9,-0.4 -4.7,-2.3 -7.4,-7.9 0.1,-8.1 22.9,-8.3 50.8,3 61.6,24.9 10.5,20.3 5.3,47.5 -12.6,62 -10.6,8.8 -24.9,13.2 -38.7,11.5 z"/>
</svg>
